<svg id="Capa_1" enable-background="new 0 0 512 512" height="512" viewBox="0 0 512 512" width="512" xmlns="http://www.w3.org/2000/svg"><g><path d="m369.717 142.283-53.033-53.033-53.033 53.033-10.607 31.82-167.474 167.474-31.82 10.607-31.82 31.82c-29.241 29.241-29.241 76.825 0 106.066s76.825 29.241 106.066 0l294.754-294.754z" fill="#fabe2c"/><path d="m127.997 490.07 294.753-294.754-53.033-53.033-347.787 347.787c29.241 29.24 76.826 29.24 106.067 0z" fill="#ff9100"/><path d="m507.603 131.676-63.64-63.64-63.64-63.64c-5.863-5.863-15.351-5.863-21.213 0l-63.64 63.64c-5.863 5.863-5.863 15.351 0 21.213l63.64 63.64 63.64 63.64c5.863 5.863 15.351 5.863 21.213 0l63.64-63.64c5.863-5.862 5.863-15.35 0-21.213z" fill="#f3fbff"/><path d="m443.963 216.529 63.64-63.64c5.863-5.863 5.863-15.351 0-21.213l-63.64-63.64-84.853 84.853 63.64 63.64c5.863 5.863 15.351 5.863 21.213 0z" fill="#e0f4fe"/><path d="m344.111 38.037h30v60h-30z" fill="#e0f4fe" transform="matrix(.707 .707 -.707 .707 153.29 -234.002)"/><path d="m428.963 122.889h30v60h-30z" fill="#b7e4f8" transform="matrix(.707 .707 -.707 .707 238.143 -269.149)"/><path d="m316.684 195.316-53.033-53.033-209.901 209.901 53.033 53.033c5.863 5.863 15.351 5.863 21.213 0l188.688-188.688c5.863-5.863 5.863-15.351 0-21.213z" fill="#f3fbff"/><path d="m127.997 405.217 188.688-188.688c5.863-5.863 5.863-15.351 0-21.213l-209.902 209.901c5.863 5.862 15.351 5.862 21.214 0z" fill="#e0f4fe"/><path d="m422.75 89.25-10.606-10.607-42.427 42.427 10.607 10.606 10.606 10.607 42.427-42.427z" fill="#e0f4fe"/><path d="m376.84 108.266h60v15h-60z" fill="#b7e4f8" transform="matrix(.707 -.707 .707 .707 37.302 321.587)"/></g></svg>